<?xml version="1.0" encoding="UTF-8"?>
<svg id="Layer_1" data-name="Layer 1" xmlns="http://www.w3.org/2000/svg" viewBox="0 0 1920 1080">
  <defs>
    <style>
      .cls-1 {
        fill: #14181b;
        stroke-width: 0px;
      }
    </style>
  </defs>
  <path class="cls-1" d="M884.05,602.33l50.8,88c3.85,6.67-.96,15-8.66,15h-39.27c-3.57,0-6.87-1.91-8.66-5l-56.58-98c-1.79-3.09-1.79-6.91,0-10l56.58-98c1.79-3.09,5.09-5,8.66-5h39.27c7.7,0,12.51,8.33,8.66,15l-50.8,88c-1.79,3.09-1.79,6.91,0,10Z"/>
  <rect class="cls-1" x="769.31" y="417.34" width="54" height="288" rx="10" ry="10"/>
  <path class="cls-1" d="M1064.16,499.84l-108.31,187.63c-4.59,7.94,1.15,17.87,10.32,17.87h216.77c9.17,0,14.91-9.93,10.32-17.87l-108.31-187.63c-4.62-8-16.17-8-20.79,0Z"/>
</svg>